<?xml version="1.0"?>
<svg xmlns="http://www.w3.org/2000/svg" viewBox="0 0 512 512" width="512" height="512"><g id="outline"><path d="M488,327.671H451.275a86.153,86.153,0,0,0-118.55,0H256a32.051,32.051,0,0,0-31.562,26.706l-69.721-23.245A32.456,32.456,0,0,0,112,361.922v.525a32.418,32.418,0,0,0,15.03,27.509L265.9,478.324a78.192,78.192,0,0,0,61.727,9.627L449.035,456H488a8,8,0,0,0,8-8V335.671A8,8,0,0,0,488,327.671ZM480,440H448a7.993,7.993,0,0,0-2.036.264L323.55,472.479a62.2,62.2,0,0,1-49.065-7.653L135.62,376.458A16.5,16.5,0,0,1,128,362.447v-.525a16.493,16.493,0,0,1,16.4-16.473,16.58,16.58,0,0,1,5.255.862l76.77,25.6A31.96,31.96,0,0,0,256,391.671h80a8,8,0,0,0,0-16H256a15.976,15.976,0,0,1-15.507-12.038l0-.02A16.011,16.011,0,0,1,256,343.671h80a8,8,0,0,0,5.657-2.343l.81-.81a70.125,70.125,0,0,1,99.064,0l.81.81A8,8,0,0,0,448,343.671h32Z"/><path d="M149.539,229.176c.127.034.255.065.385.093a76.107,76.107,0,0,0,16.022,1.7c.369,0,.738-.011,1.106-.016a28.034,28.034,0,0,0,29.761,15.032l9.466-1.61a25.668,25.668,0,0,0,19.066,4.293l19.138-3.255a36.142,36.142,0,0,0,6.062,8.045l57.8,57.8a8,8,0,0,0,11.314,0l57.8-57.8a36,36,0,0,0-50.914-50.914L314,215.087l-3.383-3.383a33.209,33.209,0,0,0,7.258-41.059,7.977,7.977,0,0,0,.474-1.486l3.323-15.433a44.212,44.212,0,0,0-9.8-38.116l-29.623-34.1A43.888,43.888,0,0,0,248.2,66.371l-120.9,2.3L27.569,18.956A8,8,0,0,0,16,26.116v120a8,8,0,0,0,4.706,7.29l62.24,28.119,12.019,14.743a94.79,94.79,0,0,0,53.327,32.65C148.708,229.007,149.123,229.094,149.539,229.176Zm36-.744a76.432,76.432,0,0,0,9.811-3.316,25.877,25.877,0,0,0,.812,4.752l-2.026.345A12.038,12.038,0,0,1,185.534,228.432Zm37.129,4.464a9.708,9.708,0,0,1-9.787-4.307,10.083,10.083,0,0,1-1.054-8.738,8.839,8.839,0,0,1,2.833-4.155l7.673-3.828,20.366,2.485A35.991,35.991,0,0,0,240,228c0,.648.02,1.294.054,1.937Zm85.68-.838a8,8,0,0,0,11.314,0l18.2-18.2a20,20,0,0,1,28.287,28.287L314,294.286l-52.141-52.14a19.982,19.982,0,0,1-2.16-25.718l25.212,3.076a33.481,33.481,0,0,0,10.5-.38Zm-200.977-45.9-13.209-16.2a7.981,7.981,0,0,0-2.907-2.235L32,140.952V39.043l89.918,44.825a8.357,8.357,0,0,0,3.722.84L248.5,82.369c.18,0,.358-.006.537-.006A27.927,27.927,0,0,1,270.173,92L299.8,126.1a28.133,28.133,0,0,1,6.235,24.255l-1.527,7.095a33.219,33.219,0,0,0-8.621-3.142l-14.577-3.139,1.684-7.82a8,8,0,0,0-15.642-3.368l-1.684,7.821-11.455-2.467-9.019-22.848a8,8,0,0,0-14.883,5.875l5.1,12.926-16.8-3.617a8,8,0,1,0-3.368,15.64l77.277,16.639a17.088,17.088,0,0,1-5.667,33.668l-64.97-7.927a8.006,8.006,0,0,0-4.539.783l-6.157,3.07c-.019.007-.039.011-.058.018a22.755,22.755,0,0,0-4.786,2.4l-13.362,6.665a60.642,60.642,0,0,1-39.178,5.105c-.227-.064-.457-.119-.69-.163-.489-.093-.978-.193-1.457-.3A78.727,78.727,0,0,1,107.366,186.158Z"/></g></svg>
