<svg id="Capa_1" enable-background="new 0 0 512 512" height="512" viewBox="0 0 512 512" width="512" xmlns="http://www.w3.org/2000/svg"><g><path d="m120.715 184.796h270.569v256h-270.569z" fill="#f1f4f6"/><path d="m318.439 440.796v-62.439c0-34.484-27.955-62.439-62.439-62.439s-62.439 27.955-62.439 62.439v62.439z" fill="#c6865c"/><g><path d="m461.113 226.422h-73.055c-5.69 0-10.302-4.612-10.302-10.302v-31.324h93.659v31.324c0 5.69-4.613 10.302-10.302 10.302z" fill="#d0e2e7"/><path d="m461.113 226.422h-10.511v-41.626h20.813v31.324c0 5.69-4.613 10.302-10.302 10.302z" fill="#b4d0d5"/><path d="m391.285 226.422h66.602v172.748h-66.602z" fill="#9bb9c1"/><path d="m434.992 226.422h22.894v172.748h-22.894z" fill="#86a0af"/><path d="m388.058 399.17h73.055c5.69 0 10.302 4.612 10.302 10.302v31.324h-93.659v-31.324c0-5.689 4.612-10.302 10.302-10.302z" fill="#d0e2e7"/><path d="m450.602 399.17h10.511c5.69 0 10.302 4.612 10.302 10.302v31.324h-20.813z" fill="#b4d0d5"/></g><g><path d="m50.887 226.422h73.055c5.69 0 10.302-4.612 10.302-10.302v-31.324h-93.659v31.324c0 5.69 4.613 10.302 10.302 10.302z" fill="#d0e2e7"/><path d="m113.431 226.422h10.511c5.69 0 10.302-4.612 10.302-10.302v-31.324h-20.813z" fill="#b4d0d5"/><path d="m54.114 226.422h66.602v172.748h-66.602z" fill="#9bb9c1" transform="matrix(-1 0 0 -1 174.829 625.593)"/><path d="m97.821 226.422h22.894v172.748h-22.894z" fill="#86a0af"/><path d="m123.942 399.17h-73.055c-5.69 0-10.302 4.612-10.302 10.302v31.324h93.659v-31.324c0-5.689-4.612-10.302-10.302-10.302z" fill="#d0e2e7"/><path d="m123.942 399.17h-10.511v41.626h20.813v-31.324c0-5.689-4.612-10.302-10.302-10.302z" fill="#b4d0d5"/></g><path d="m495.35 476.179h-478.7v-25.08c0-5.69 4.612-10.302 10.302-10.302h458.096c5.69 0 10.302 4.612 10.302 10.302z" fill="#9bb9c1"/><path d="m501.698 511.561h-491.396c-5.69 0-10.302-4.613-10.302-10.302v-14.779c0-5.69 4.612-10.302 10.302-10.302h491.396c5.69 0 10.302 4.612 10.302 10.302v14.779c0 5.689-4.612 10.302-10.302 10.302z" fill="#86a0af"/><path d="m489.051 97.847-229.048-96.598c-2.56-1.08-5.447-1.08-8.006 0l-229.048 96.598c-3.817 1.61-6.299 5.35-6.299 9.492v67.155c0 5.69 4.612 10.302 10.302 10.302h458.096c5.69 0 10.302-4.612 10.302-10.302v-67.154c0-4.143-2.482-7.883-6.299-9.493z" fill="#d0e2e7"/><path d="m471.415 90.409v94.387h13.633c5.69 0 10.302-4.612 10.302-10.302v-67.154c0-4.143-2.481-7.882-6.299-9.492z" fill="#b4d0d5"/><g fill="#9bb9c1"><path d="m185.746 127.821c-12.579-12.579-19.507-29.304-19.507-47.094 0-.025 0-.05 0-.075.004-3.366-3.373-5.673-6.474-4.365l-109.814 46.314v28.895h148.211c4.154 0 6.235-5.023 3.297-7.961z"/><path d="m352.235 76.288c-3.101-1.308-6.478.999-6.474 4.365v.074c0 17.79-6.928 34.515-19.508 47.095l-15.713 15.713c-2.938 2.938-.857 7.961 3.297 7.961h148.211v-28.895z"/></g><g><path d="m302.387 56.864c-12.9-12.563-33.461-12.575-46.387-.052-12.925-12.523-33.486-12.511-46.387.052-13.299 12.951-12.923 34.807.203 47.933l38.899 38.899c4.023 4.023 10.546 4.023 14.569 0l38.899-38.899c13.127-13.126 13.502-34.982.204-47.933z" fill="#dd636e"/><path d="m303.641 58.152c-6.317-6.837-14.762-10.393-23.3-10.692.912 4.037 1.41 8.232 1.41 12.545 0 31.323-25.392 56.715-56.715 56.715-1.145 0-2.279-.044-3.407-.111l27.087 27.087c4.023 4.023 10.546 4.023 14.569 0l38.976-38.976c12.71-12.71 13.579-33.365 1.38-46.568z" fill="#da4a54"/></g><path d="m308.137 273.252h-104.274c-5.69 0-10.302-4.612-10.302-10.302v-14.778c0-5.69 4.612-10.302 10.302-10.302h104.274c5.69 0 10.302 4.612 10.302 10.302v14.778c0 5.689-4.612 10.302-10.302 10.302z" fill="#86a0af"/><path d="m248.274 316.411v124.385h15.453v-124.385c-2.533-.313-5.108-.493-7.726-.493-2.619 0-5.194.18-7.727.493z" fill="#b16e3d"/></g></svg>